<svg data-v-423bf9ae="" xmlns="http://www.w3.org/2000/svg" viewBox="0 0 110 90" class="iconLeft"><!----><!----><!---->
    <g data-v-423bf9ae="" id="b080dd23-414a-4890-8dd6-b1c27d7daa00"
       transform="matrix(1.3957817554473877,0,0,1.3957817554473877,-14.726853370666504,-24.029085159301758)"
       stroke="none" fill="white">
        <path d="M88.844 52.861c-.732-14.075-12.447-25.1-26.572-25.1-1.202 0-2.44.088-3.627.249-4.852-6.231-12.437-10.25-20.927-10.25-14.125 0-25.772 11.025-26.504 25.1l-.008 29.38 8.617-8.434c4.861 4.438 11.267 6.949 17.876 6.949a26.52 26.52 0 0 0 3.575-.248c5.008 6.437 12.732 10.249 20.921 10.249 6.609 0 13.171-2.511 18.031-6.949L89 82.24V52.965l-.156-.104zm-67.558 6.774l-1.498-1.491L15 62.729V43.017C16 31.093 25.62 21.76 37.598 21.76c12.405 0 22.547 10.092 22.547 22.498 0 12.405-10.067 22.497-22.471 22.497-6.281-.001-12.085-2.529-16.388-7.12zM61.583 56h12.895c-.742 6-5.968 10.736-12.282 10.736-2.619 0-5.101-.747-7.184-2.241C57.746 62.13 59.997 59 61.583 56zM85 72.73l-4.84-4.585-1.474 1.49c-4.304 4.592-10.171 7.12-16.452 7.12A22.579 22.579 0 0 1 45.7 69.523a26.34 26.34 0 0 0 6.862-3.335c2.723 2.206 6.295 3.411 9.854 3.411C70.893 69.599 78 62.703 78 54.227V53H62.8c.444-1 .789-2.809 1.024-4.206.701 1.069 1.906 1.709 3.28 1.709 2.167 0 3.924-1.791 3.924-3.958s-1.757-3.941-3.924-3.941a3.89 3.89 0 0 0-2.916 1.312 26.343 26.343 0 0 0-3.116-12.124c.374-.018.903-.03 1.278-.03C74.327 31.763 84 41.094 85 53.018V72.73z"></path>
        <path d="M51.572 41.641a1.5 1.5 0 0 0-1.5 1.5c0 6.823-5.55 12.373-12.373 12.373-6.823 0-12.373-5.55-12.373-12.373a1.5 1.5 0 1 0-3 0c0 8.477 6.896 15.373 15.373 15.373s15.373-6.896 15.373-15.373a1.5 1.5 0 0 0-1.5-1.5z"></path>
        <circle cx="31.409" cy="35.425" r="3.924"></circle>
        <path d="M38.772 39h7.971a1.5 1.5 0 1 0 0-3h-2.504l.851-.573c.712-.423.947-1.377.524-2.09-.423-.712-1.343-.965-2.056-.541l-5.553 3.286c-.581.345-.86 1.099-.681 1.751.18.652.772 1.167 1.448 1.167z"></path>
    </g><!---->
</svg>