<svg data-v-423bf9ae="" xmlns="http://www.w3.org/2000/svg" viewBox="0 0 416 90" class="iconLeft"><!----><!----><!---->
    <g data-v-423bf9ae="" id="0da3e079-9755-4876-b24a-1bccbdb61706" fill="white"
       transform="matrix(4.51127815246582,0,0,4.51127815246582,125.47064208984375,0.4736851453781128)">
        <path d="M5.31 3.72C2.59 3.72 0.69 5.75 0.69 8.79C0.69 11.73 2.38 13.78 5.14 13.78C7.66 13.78 9.07 12.33 9.27 10.44L9.28 10.30L7.76 10.30L7.73 10.44C7.46 11.75 6.66 12.60 5.21 12.60C3.50 12.60 2.35 11.12 2.35 8.72C2.35 6.44 3.49 4.90 5.28 4.90C6.73 4.90 7.53 5.73 7.80 7.03L7.83 7.17L9.35 7.17L9.34 7.03C9.14 5.12 7.83 3.72 5.31 3.72ZM17.44 8.08C17.30 6.78 16.39 5.95 14.80 5.95C14.06 5.95 13.51 6.08 12.92 6.52L12.42 7.38L12.42 3.22L10.88 3.22L10.88 13.58L12.42 13.58L12.42 10.25C12.42 7.92 13.29 7.11 14.35 7.08C15.40 7.07 15.85 7.67 15.92 8.51C15.95 8.89 15.95 9.21 15.95 9.56L15.95 13.58L17.49 13.58L17.49 9.39C17.49 8.79 17.47 8.46 17.44 8.08ZM23.65 13.58L25.17 13.58C25.06 12.75 25.03 12.25 25.03 11.69L25.03 9.07C25.03 8.72 25.02 8.33 24.99 8.02C24.86 6.76 24.11 5.95 22.19 5.95C20.50 5.95 19.28 6.87 19.18 8.50L20.72 8.50C20.80 7.57 21.27 7.07 22.16 7.07C23.04 7.07 23.42 7.49 23.46 8.09C23.49 8.37 23.49 8.62 23.49 8.90L23.49 9.09L23.02 9.09C20.20 9.09 18.89 9.98 18.89 11.63C18.89 13.02 19.96 13.78 21.28 13.78C21.98 13.78 22.62 13.65 23.13 13.30L23.51 12.50ZM21.84 12.66C21.03 12.66 20.51 12.29 20.51 11.51C20.51 10.37 21.69 9.97 23.49 10.11L23.49 10.79C23.49 12.00 22.81 12.66 21.84 12.66ZM28.83 7.28L30.28 7.28L30.28 6.20L28.83 6.20L28.83 4.42L27.30 4.42L27.30 6.20L26.25 6.20L26.25 7.28L27.30 7.28L27.30 11.31C27.30 11.73 27.30 12.05 27.31 12.31C27.38 13.29 27.89 13.72 29.05 13.72C29.43 13.72 29.79 13.69 30.18 13.64L30.18 12.57C29.18 12.67 28.90 12.52 28.84 11.79C28.83 11.59 28.83 11.42 28.83 11.17ZM35.14 3.72C33.33 3.72 31.81 4.77 31.81 6.48C31.81 8.16 33.03 8.85 34.86 9.28C36.43 9.65 37.02 10.16 37.02 11.17C37.02 12.05 36.22 12.60 35.21 12.60C34.08 12.60 33.24 11.97 32.98 10.78L31.39 10.78C31.58 12.73 33.00 13.78 35.21 13.78C37.09 13.78 38.64 12.71 38.64 10.96C38.64 9.35 37.63 8.44 35.50 7.95C34.01 7.60 33.43 7.17 33.43 6.23C33.43 5.32 34.15 4.90 35.06 4.90C36.18 4.90 36.82 5.56 36.93 6.66L38.53 6.66C38.33 4.98 37.28 3.72 35.14 3.72ZM41.85 7.28L43.30 7.28L43.30 6.20L41.85 6.20L41.85 4.42L40.32 4.42L40.32 6.20L39.27 6.20L39.27 7.28L40.32 7.28L40.32 11.31C40.32 11.73 40.32 12.05 40.33 12.31C40.40 13.29 40.91 13.72 42.07 13.72C42.45 13.72 42.81 13.69 43.20 13.64L43.20 12.57C42.20 12.67 41.92 12.52 41.86 11.79C41.85 11.59 41.85 11.42 41.85 11.17ZM47.74 5.95C45.23 5.95 43.97 7.69 43.97 9.86C43.97 12.03 45.23 13.78 47.74 13.78C50.23 13.78 51.51 12.03 51.51 9.86C51.51 7.69 50.23 5.95 47.74 5.95ZM47.74 12.66C46.38 12.66 45.60 11.54 45.60 9.86C45.60 8.18 46.38 7.07 47.74 7.07C49.08 7.07 49.87 8.18 49.87 9.86C49.87 11.54 49.08 12.66 47.74 12.66ZM56.18 5.96C55.80 5.96 55.37 6.12 55.03 6.38L54.40 7.41L54.40 6.15L52.86 6.15L52.86 13.58L54.40 13.58L54.40 9.72C54.40 7.88 55.29 7.15 56.70 7.25L56.70 6.05C56.55 5.99 56.39 5.96 56.18 5.96ZM64.32 6.15L62.65 6.15L60.62 12.43L58.58 6.15L56.85 6.15L59.85 13.93L59.74 14.20C59.40 15.06 58.93 15.36 58.23 15.36C58.07 15.36 57.92 15.36 57.74 15.34L57.74 16.48C57.96 16.52 58.16 16.52 58.46 16.52C59.81 16.52 60.61 15.82 61.29 14.06Z"></path>
    </g><!---->
    <g data-v-423bf9ae="" id="b080dd23-414a-4890-8dd6-b1c27d7daa00"
       transform="matrix(1.3957817554473877,0,0,1.3957817554473877,-14.726853370666504,-24.029085159301758)"
       stroke="none" fill="white">
        <path d="M88.844 52.861c-.732-14.075-12.447-25.1-26.572-25.1-1.202 0-2.44.088-3.627.249-4.852-6.231-12.437-10.25-20.927-10.25-14.125 0-25.772 11.025-26.504 25.1l-.008 29.38 8.617-8.434c4.861 4.438 11.267 6.949 17.876 6.949a26.52 26.52 0 0 0 3.575-.248c5.008 6.437 12.732 10.249 20.921 10.249 6.609 0 13.171-2.511 18.031-6.949L89 82.24V52.965l-.156-.104zm-67.558 6.774l-1.498-1.491L15 62.729V43.017C16 31.093 25.62 21.76 37.598 21.76c12.405 0 22.547 10.092 22.547 22.498 0 12.405-10.067 22.497-22.471 22.497-6.281-.001-12.085-2.529-16.388-7.12zM61.583 56h12.895c-.742 6-5.968 10.736-12.282 10.736-2.619 0-5.101-.747-7.184-2.241C57.746 62.13 59.997 59 61.583 56zM85 72.73l-4.84-4.585-1.474 1.49c-4.304 4.592-10.171 7.12-16.452 7.12A22.579 22.579 0 0 1 45.7 69.523a26.34 26.34 0 0 0 6.862-3.335c2.723 2.206 6.295 3.411 9.854 3.411C70.893 69.599 78 62.703 78 54.227V53H62.8c.444-1 .789-2.809 1.024-4.206.701 1.069 1.906 1.709 3.28 1.709 2.167 0 3.924-1.791 3.924-3.958s-1.757-3.941-3.924-3.941a3.89 3.89 0 0 0-2.916 1.312 26.343 26.343 0 0 0-3.116-12.124c.374-.018.903-.03 1.278-.03C74.327 31.763 84 41.094 85 53.018V72.73z"></path>
        <path d="M51.572 41.641a1.5 1.5 0 0 0-1.5 1.5c0 6.823-5.55 12.373-12.373 12.373-6.823 0-12.373-5.55-12.373-12.373a1.5 1.5 0 1 0-3 0c0 8.477 6.896 15.373 15.373 15.373s15.373-6.896 15.373-15.373a1.5 1.5 0 0 0-1.5-1.5z"></path>
        <circle cx="31.409" cy="35.425" r="3.924"></circle>
        <path d="M38.772 39h7.971a1.5 1.5 0 1 0 0-3h-2.504l.851-.573c.712-.423.947-1.377.524-2.09-.423-.712-1.343-.965-2.056-.541l-5.553 3.286c-.581.345-.86 1.099-.681 1.751.18.652.772 1.167 1.448 1.167z"></path>
    </g><!---->
</svg>